# xmcd CD database file
#
# Track frame offsets:
#	150
#	30237
#	57682
#	92160
#	128542
#	152110
#	174577
#	214765
#	231187
#	269265
#
# Disc length: 3957 seconds
#
# Revision: 0
# Processed by: cddbd v1.4PL0 Copyright (c) Steve Scherf et al.
# Submitted via: Feurio! 1.66.2ß - http://www.feurio.com
#
DISCID=830f730a
DTITLE=Jan "Kyks" Skrzek - Modlitwa Bluesmana w Pociagu
DYEAR=1900
DGENRE=Blues
TTITLE0=W Siemianowicach
TTITLE1=Nikt Nie Zna Swej Godziny
TTITLE2=I Tak Nas Wciaga Kapitalizm
TTITLE3=Blues Bardzo Slaski
TTITLE4=Slodki Dom
TTITLE5=Nikt Nie Zawroci Kijem Wisly
TTITLE6=Rajska Kuznia
TTITLE7=Stoja Na Zdjeciu
TTITLE8=Moditwa Bluesmana w Pociagu
TTITLE9=Sztajger
EXTD=
EXTT0=
EXTT1=
EXTT2=
EXTT3=
EXTT4=
EXTT5=
EXTT6=
EXTT7=
EXTT8=
EXTT9=
PLAYORDER=
